<?xml version="1.0" encoding="utf-8"?>
<!-- Generator: Adobe Illustrator 25.2.3, SVG Export Plug-In . SVG Version: 6.00 Build 0)  -->
<svg version="1.1" id="Calque_1" xmlns="http://www.w3.org/2000/svg" xmlns:xlink="http://www.w3.org/1999/xlink" x="0px" y="0px"
	 viewBox="0 0 721.16 172.07" style="enable-background:new 0 0 721.16 172.07;" xml:space="preserve">
<style type="text/css">
	.st0{fill:#FFFFFF;}
</style>
<g>
	<path class="st0" d="M81.4,80.01V48.34H67.12v9.07l11.94,18.85C79.86,77.52,80.63,78.77,81.4,80.01z"/>
	<path class="st0" d="M67.12,121.22c0,21.67-7.55,27.41-20.35,27.41c-4.76,0-9.03-0.98-11.98-2.13l-2.13,11.66
		c3.61,1.48,10.01,2.63,15.27,2.63c19.04,0,33.48-9.03,33.48-38.41V108.5L67.12,85.67V121.22z"/>
	<path class="st0" d="M41.06,16.27H24.35v118.56h14.42V84.17c0-19.7-0.35-33.95-1.23-48.9l0.53-0.18
		c5.98,12.84,13.9,26.39,22.16,39.58l6.88,11V57.41L41.06,16.27z"/>
	<path class="st0" d="M98.94,16.27v49.61c0,18.47,0.35,32.89,1.76,48.73l-0.35,0.18c-5.12-11.03-11.27-22.36-18.94-34.77v28.48
		l16.48,26.34h15.48V16.27H98.94z"/>
</g>
<g>
	<path class="st0" d="M286.24,129.78c-5.51,2.75-16.53,5.51-30.65,5.51c-32.71,0-57.33-20.66-57.33-58.71
		c0-36.33,24.62-60.95,60.6-60.95c14.46,0,23.59,3.1,27.55,5.16l-3.62,12.22c-5.68-2.75-13.77-4.82-23.41-4.82
		c-27.2,0-45.28,17.39-45.28,47.86c0,28.41,16.36,46.66,44.59,46.66c9.12,0,18.42-1.89,24.45-4.82L286.24,129.78z"/>
	<path class="st0" d="M378.01,91.22c0,30.82-21.35,44.25-41.49,44.25c-22.55,0-39.94-16.53-39.94-42.87
		c0-27.89,18.25-44.25,41.32-44.25C361.83,48.35,378.01,65.74,378.01,91.22z M311.9,92.08c0,18.25,10.5,32.02,25.31,32.02
		c14.46,0,25.31-13.6,25.31-32.37c0-14.12-7.06-32.02-24.96-32.02C319.65,59.71,311.9,76.24,311.9,92.08z"/>
	<path class="st0" d="M397.13,72.8c0-8.61-0.17-15.67-0.69-22.55h13.26l0.69,13.43h0.52c4.65-7.92,12.4-15.32,26.17-15.32
		c11.36,0,19.97,6.89,23.59,16.7H461c2.58-4.65,5.85-8.26,9.3-10.85c4.99-3.79,10.5-5.85,18.42-5.85c11.02,0,27.37,7.23,27.37,36.15
		v49.07h-14.81V86.4c0-16.01-5.85-25.65-18.08-25.65c-8.61,0-15.32,6.37-17.91,13.77c-0.69,2.07-1.2,4.82-1.2,7.57v51.48h-14.81
		V83.64c0-13.26-5.85-22.9-17.39-22.9c-9.47,0-16.36,7.57-18.77,15.15c-0.86,2.24-1.2,4.82-1.2,7.4v50.27h-14.81V72.8z"/>
	<path class="st0" d="M557.59,26.83c0.17,5.17-3.62,9.3-9.64,9.3c-5.34,0-9.13-4.13-9.13-9.3c0-5.34,3.96-9.47,9.47-9.47
		C553.97,17.36,557.59,21.49,557.59,26.83z M540.72,133.57V50.24h15.15v83.33H540.72z"/>
	<path class="st0" d="M640.4,130.47c-3.96,2.07-12.74,4.82-23.93,4.82c-25.14,0-41.49-17.04-41.49-42.52
		c0-25.65,17.56-44.25,44.76-44.25c8.95,0,16.87,2.24,21,4.3l-3.44,11.71c-3.61-2.07-9.3-3.96-17.56-3.96
		c-19.11,0-29.44,14.12-29.44,31.51c0,19.28,12.4,31.16,28.92,31.16c8.61,0,14.29-2.24,18.59-4.13L640.4,130.47z"/>
	<path class="st0" d="M656.07,118.08c4.48,2.93,12.4,6.03,19.97,6.03c11.02,0,16.18-5.51,16.18-12.4c0-7.23-4.3-11.19-15.5-15.32
		c-14.98-5.34-22.04-13.6-22.04-23.59c0-13.43,10.85-24.45,28.75-24.45c8.43,0,15.84,2.41,20.49,5.16l-3.79,11.02
		c-3.27-2.07-9.3-4.82-17.04-4.82c-8.95,0-13.95,5.16-13.95,11.36c0,6.89,4.99,9.99,15.84,14.12c14.46,5.51,21.86,12.74,21.86,25.14
		c0,14.63-11.36,24.96-31.16,24.96c-9.12,0-17.56-2.24-23.41-5.68L656.07,118.08z"/>
</g>
</svg>
